<?xml version="1.0" encoding="UTF-8" standalone="no"?>
<!-- Created with Inkscape (http://www.inkscape.org/) -->

<svg
   xmlns:dc="http://purl.org/dc/elements/1.1/"
   xmlns:cc="http://creativecommons.org/ns#"
   xmlns:rdf="http://www.w3.org/1999/02/22-rdf-syntax-ns#"
   xmlns:svg="http://www.w3.org/2000/svg"
   xmlns="http://www.w3.org/2000/svg"
   xmlns:sodipodi="http://sodipodi.sourceforge.net/DTD/sodipodi-0.dtd"
   xmlns:inkscape="http://www.inkscape.org/namespaces/inkscape"
   width="367.14001"
   height="367.13998"
   viewBox="0 0 367.14001 367.13998"
   version="1.1"
   id="svg2216"
   inkscape:version="0.92.3 (2405546, 2018-03-11)"
   sodipodi:docname="circle.svg">
  <defs
     id="defs2210" />
  <sodipodi:namedview
     id="base"
     pagecolor="#ffffff"
     bordercolor="#666666"
     borderopacity="1.0"
     inkscape:pageopacity="0.0"
     inkscape:pageshadow="2"
     inkscape:zoom="1.4"
     inkscape:cx="128.40776"
     inkscape:cy="196.06567"
     inkscape:document-units="px"
     inkscape:current-layer="layer1"
     showgrid="false"
     units="px"
     inkscape:window-width="1280"
     inkscape:window-height="737"
     inkscape:window-x="-8"
     inkscape:window-y="-8"
     inkscape:window-maximized="1"
     fit-margin-top="10"
     fit-margin-left="10"
     fit-margin-bottom="10"
     fit-margin-right="10"
     inkscape:showpageshadow="false"
     scale-x="1" />
  <metadata
     id="metadata2213">
    <rdf:RDF>
      <cc:Work
         rdf:about="">
        <dc:format>image/svg+xml</dc:format>
        <dc:type
           rdf:resource="http://purl.org/dc/dcmitype/StillImage" />
        <dc:title></dc:title>
      </cc:Work>
    </rdf:RDF>
  </metadata>
  <g
     inkscape:label="Layer 1"
     inkscape:groupmode="layer"
     id="layer1"
     transform="translate(283.10502,-116.23671)">
    

<g
       id="g817">
      <path
         d="m -145.5343,190.86765 30.86872,-21.51439 -0.875,93.89486 v 59.9554 8.75753 l -0.54062,95.40024 -27.28882,-19.19381 -40.82289,-111.91022 v 12.1258 27.61994 l -0.88713,43.15352 -28.13576,-19.0715 -0.25,-121.99323 32.83587,-21.89417 35.09563,98.92201 v -60.62905 -34.35646 z"
         style="font-style:normal;font-variant:normal;font-weight:normal;font-stretch:normal;font-size:333.33334351px;line-height:1.25;font-family:Monogramus;-inkscape-font-specification:Monogramus;font-variant-ligatures:normal;font-variant-caps:normal;font-variant-numeric:normal;font-feature-settings:normal;text-align:start;letter-spacing:0px;word-spacing:0px;writing-mode:lr-tb;text-anchor:start;fill:#000000;fill-opacity:1;stroke:none;stroke-width:2.01024699"
         id="path839"
         inkscape:connector-curvature="0"
         sodipodi:nodetypes="cccccccccccccccccc" />
    </g>



<g
       transform="matrix(1.9736192,0,0,2.0650163,920.49146,-259.21279)"
       id="g845"
       style="font-style:normal;font-variant:normal;font-weight:normal;font-stretch:normal;font-size:37.33333206px;line-height:1.25;font-family:'Open Sans';-inkscape-font-specification:'Open Sans, Normal';font-variant-ligatures:normal;font-variant-caps:normal;font-variant-numeric:normal;font-feature-settings:normal;text-align:start;letter-spacing:0px;word-spacing:0px;writing-mode:lr-tb;text-anchor:start;fill:#000000;fill-opacity:1;stroke:none"
       aria-label="a">
      <path
         sodipodi:nodetypes="cccccccccccccccc"
         inkscape:connector-curvature="0"
         id="path843"
         style="font-style:normal;font-variant:normal;font-weight:normal;font-stretch:normal;font-size:333.33334351px;font-family:Monogramus;-inkscape-font-specification:Monogramus;fill:#000000;fill-opacity:1"
         d="m -459.57516,240.94553 -0.0564,58.56107 -14.17387,9.62147 -0.15804,-24.03567 h -22.33334 l -0.0448,39.06346 -13.52715,9.18036 0.0422,-125.84703 z m -36.72173,29.14687 h 22.33334 v -6.66666 -16.23588 c -9.07519,-5.63921 -14.77778,-8.27424 -22.33334,-13.38535 v 29.62123 z" />
    </g>




    <path
       style="fill:#000000;fill-opacity:1;fill-rule:evenodd;stroke-width:1.06112659"
       d="m -99.535018,126.23671 a 173.57001,173.57001 0 0 0 -173.570002,173.56998 173.57001,173.57001 0 0 0 173.570002,173.56999 173.57001,173.57001 0 0 0 173.57,-173.56999 173.57001,173.57001 0 0 0 -173.57,-173.56998 z m 0,10.84808 A 162.72188,162.72188 0 0 1 63.186852,299.80669 162.72188,162.72188 0 0 1 -99.535018,462.52856 162.72188,162.72188 0 0 1 -262.25689,299.80669 162.72188,162.72188 0 0 1 -99.535018,137.08479 Z"
       id="path12"
       inkscape:connector-curvature="0" />
  </g>
</svg>
